<svg viewBox="0 0 101 146" fill="none" xmlns="http://www.w3.org/2000/svg">
<path fill-rule="evenodd" clip-rule="evenodd" d="M28.8178 89.3725C24.6578 93.4827 18.51 97.5753 12.3081 96.7212C4.37493 95.6295 2.57341 83.4251 3.94104 77.0463C6.61181 64.6116 16.2849 52.1945 25.6164 44.0122C30.5724 39.6673 36.0899 36.0736 41.943 33.1329C47.1438 52.7682 44.5463 73.8327 28.8178 89.3725ZM98.2489 127.104C89.2808 132.081 79.6019 135.782 70.1164 139.751C83.0613 119.935 92.063 96.485 96.8255 73.5334C99.9771 58.3399 104.18 31.2591 86.937 22.3681C76.7816 17.1309 62.8327 21.338 52.8254 24.6484C50.0564 25.5641 47.3314 26.6103 44.6621 27.7813C41.4666 18.3004 36.4402 9.35811 30.4112 1.43855C29.0011 -0.414772 25.8158 1.41214 27.2479 3.29041C33.1684 11.0676 37.9236 20.0863 40.911 29.5451C31.0181 34.4477 22.0647 41.1743 14.9378 49.6969C7.09993 59.0707 -1.62182 72.3345 0.258851 85.1317C2.08089 97.5342 10.6634 103.914 22.6408 98.3119C36.9503 91.6191 45.4199 73.3925 47.7081 58.563C49.1315 49.3286 48.2578 40.1339 45.7644 31.3398C51.2305 28.9244 56.9371 27.0315 62.7638 25.6947C71.3565 23.7298 82.299 21.4642 89.2515 28.5752C100.95 40.5448 95.3524 64.7539 91.8622 78.8175C86.5896 100.065 78.0408 121.435 65.757 139.715C63.0511 130.813 60.5709 121.843 57.6421 113.009C56.9033 110.78 53.3633 111.736 54.1095 113.985C57.3885 123.878 60.0901 133.949 63.1991 143.895C63.1933 144.343 63.4 144.742 63.7268 145.044C64.2751 145.693 65.1839 145.838 66.0341 145.461C77.3474 140.442 89.253 136.291 100.099 130.27C102.161 129.127 100.316 125.958 98.2489 127.104Z" fill="#D9302E"/>
</svg>
