<svg version="1.1" id="Layer_1" xmlns="http://www.w3.org/2000/svg" xmlns:xlink="http://www.w3.org/1999/xlink" x="0px" y="0px" viewBox="0 0 20.1 16.1" style="enable-background:new 0 0 20.1 16.1;" xml:space="preserve">
<g>
	<path d="M5.3,10.9c-0.5,0-0.9,0.4-0.9,0.9v1.9h1.9c0.5,0,0.9-0.4,0.9-0.9H5.3V10.9z"/>
	<path d="M5.3,10.9h1.9v1.9c0.5,0,0.9-0.4,0.9-0.9V10H6.3C5.8,10,5.3,10.4,5.3,10.9z"/>
	<path d="M12.9,10.9c-0.5,0-0.9,0.4-0.9,0.9v1.9h1.9c0.5,0,0.9-0.4,0.9-0.9h-1.9V10.9z"/>
	<path d="M12.9,10.9h1.9v1.9c0.5,0,0.9-0.4,0.9-0.9V10h-1.9C13.3,10,12.9,10.4,12.9,10.9z"/>
	<path d="M12.9,3.3c-0.5,0-0.9,0.4-0.9,0.9v1.9h1.9c0.5,0,0.9-0.4,0.9-0.9h-1.9V3.3z"/>
	<path d="M14.8,2.4h-0.9c-0.5,0-0.9,0.4-0.9,0.9h1.9v1.9c0.5,0,0.9-0.4,0.9-0.9V2.4H14.8z"/>
	<path d="M5.3,3.3c-0.5,0-0.9,0.4-0.9,0.9v1.9h1.9c0.5,0,0.9-0.4,0.9-0.9H5.3V3.3z"/>
	<path d="M5.3,3.3h1.9v1.9c0.5,0,0.9-0.4,0.9-0.9V2.4H6.3C5.8,2.4,5.3,2.8,5.3,3.3z"/>
	<rect x="8.7" y="3.8" width="2.8" height="0.9"/>
	<rect x="8.7" y="11.4" width="2.8" height="0.9"/>
	<rect x="13.4" y="6.7" width="0.9" height="2.8"/>
	<rect x="5.8" y="6.7" width="0.9" height="2.8"/>
</g>
</svg>