<svg width="135" height="35" viewBox="0 0 135 35" fill="none" xmlns="http://www.w3.org/2000/svg">
<path d="M32.6984 15.5344C32.7091 15.3402 32.7112 15.1482 32.7112 14.9519C32.7112 14.6105 32.6984 14.2669 32.6728 13.9319C32.0903 6.28653 25.006 0.25 16.3535 0.25C7.32321 0.25 0 6.83278 0 14.954C0 21.189 4.31668 26.5171 10.4087 28.6573C12.2032 29.2868 13.1869 31.2157 12.6492 33.0401L12.2928 34.25C16.5306 31.9775 21.05 29.9269 25.038 27.2362C28.3902 24.9765 31.6059 21.6392 32.453 17.5573H17.431C16.2894 20.0752 13.5411 21.8483 10.3297 21.8483C6.94553 21.8483 4.07129 19.8767 3.0556 17.1412C2.8657 16.6333 2.7398 16.0956 2.68646 15.5366V15.5344H32.6984ZM10.3297 8.05758C14.0169 8.05758 17.0982 10.3984 17.8322 13.518H2.82515C3.56132 10.3984 6.63826 8.05758 10.3297 8.05758Z" fill="#00CC74"/>
<path d="M38.7109 24.5159V5.50781H53.2092V9.33814H42.966V13.0552H52.7824V16.8572H42.966V20.6876H53.2092V24.5179H38.7109V24.5159Z" fill="#1A1D33"/>
<path d="M55.8369 24.5158V10.2461H59.7805V12.7417H59.9504C60.7168 11.1238 62.2478 9.96094 64.7454 9.96094C68.4625 9.96094 70.052 12.4282 70.052 15.4658V24.5158H65.797V16.3172C65.797 14.3312 65.1438 13.6214 62.9879 13.6214C60.9454 13.6214 60.0656 14.2746 60.0656 16.4304V24.5158H55.8369Z" fill="#1A1D33"/>
<path d="M71.8096 16.5154C71.8096 12.5435 73.9654 9.96094 78.0222 9.96094C80.0648 9.96094 81.6827 10.7557 82.4492 12.315H82.5907V10.2461H86.5343V22.9282C86.5343 27.5817 84.065 29.6243 79.4702 29.6243C75.015 29.6243 72.5194 27.6666 72.5194 24.0345H76.7461C76.7461 25.5108 77.1708 25.8789 79.6118 25.8789C81.8526 25.8789 82.3076 25.3692 82.3076 23.1548V20.9423H82.1377C81.5128 22.0485 80.0102 23.0132 77.8544 23.0132C73.9088 23.0132 71.8096 20.4873 71.8096 16.5154ZM79.1588 19.466C81.2014 19.466 82.3076 18.7561 82.3076 16.9401V16.0887C82.3076 14.2726 81.2297 13.5627 79.1871 13.5627C76.7481 13.5627 76.0383 14.4991 76.0383 16.5134C76.0383 18.5296 76.7461 19.466 79.1588 19.466Z" fill="#1A1D33"/>
<path d="M88.4658 20.8856C88.4658 18.6732 90.0554 17.3101 93.006 16.8571L97.8839 16.1189V15.6659C97.8839 13.9914 96.9759 13.68 95.3014 13.68C93.5702 13.68 92.8907 14.1613 92.8907 15.6093V15.9207H88.8339V15.6093C88.8339 12.2057 91.4731 9.96289 95.5016 9.96289C99.7 9.96289 101.914 12.2603 101.914 16.0623V24.5177H97.9709V22.5884H97.801C97.0345 23.638 95.5885 24.8009 92.9494 24.8009C90.4235 24.8009 88.4658 23.4661 88.4658 20.8856ZM94.367 21.5651C96.0982 21.5651 97.8859 21.1121 97.8859 18.8976L93.8008 19.5225C92.9211 19.6641 92.5247 19.9472 92.5247 20.5438C92.5227 21.3103 93.1192 21.5651 94.367 21.5651Z" fill="#1A1D33"/>
<path d="M103.7 16.5154C103.7 12.5435 105.856 9.96094 109.913 9.96094C111.955 9.96094 113.573 10.7557 114.34 12.315H114.481V10.2461H118.425V22.9282C118.425 27.5817 115.956 29.6243 111.361 29.6243C106.906 29.6243 104.41 27.6666 104.41 24.0345H108.637C108.637 25.5108 109.061 25.8789 111.502 25.8789C113.743 25.8789 114.198 25.3692 114.198 23.1548V20.9423H114.028C113.403 22.0485 111.901 23.0132 109.745 23.0132C105.799 23.0132 103.7 20.4873 103.7 16.5154ZM111.049 19.466C113.092 19.466 114.198 18.7561 114.198 16.9401V16.0887C114.198 14.2726 113.12 13.5627 111.078 13.5627C108.637 13.5627 107.929 14.4991 107.929 16.5134C107.927 18.5296 108.637 19.466 111.049 19.466Z" fill="#1A1D33"/>
<path d="M120.212 17.4234C120.212 12.8549 122.936 9.96094 127.389 9.96094C131.673 9.96094 134.198 12.5152 134.198 16.2302C134.198 17.025 134.085 17.8481 134 18.3294H124.212C124.297 20.3154 125.092 21.1102 127.418 21.1102C129.12 21.1102 129.859 20.7421 129.859 19.8624V19.6925H134.057V19.9756C134.057 23.0112 131.446 24.7989 127.361 24.7989C122.453 24.8009 120.212 21.9353 120.212 17.4234ZM124.24 15.7489H130.113C130.198 14.2726 129.234 13.4515 127.248 13.4515C125.205 13.4515 124.41 14.2463 124.24 15.7489Z" fill="#1A1D33"/>
</svg>
