<svg xmlns="http://www.w3.org/2000/svg" viewBox="0 0 16 16" class="typesSelect" style="width: 18px; height: 18px; display: block; fill: rgba(55, 53, 47, 0.85); flex-shrink: 0; backface-visibility: hidden;"><path d="M8 15.126C11.8623 15.126 15.0615 11.9336 15.0615 8.06445C15.0615 4.20215 11.8623 1.00293 7.99316 1.00293C4.13086 1.00293 0.938477 4.20215 0.938477 8.06445C0.938477 11.9336 4.1377 15.126 8 15.126ZM8 13.7383C4.85547 13.7383 2.33301 11.209 2.33301 8.06445C2.33301 4.91992 4.84863 2.39746 7.99316 2.39746C11.1377 2.39746 13.6738 4.91992 13.6738 8.06445C13.6738 11.209 11.1445 13.7383 8 13.7383ZM7.62402 10.6348C7.79492 10.915 8.20508 10.9287 8.37598 10.6348L10.666 6.73145C10.8574 6.41016 10.7002 6.04102 10.3652 6.04102H5.62793C5.29297 6.04102 5.14941 6.43066 5.32031 6.73145L7.62402 10.6348Z"/></svg>